<?xml version="1.0" standalone="no"?>
<!DOCTYPE svg PUBLIC "-//W3C//DTD SVG 20010904//EN"
 "http://www.w3.org/TR/2001/REC-SVG-20010904/DTD/svg10.dtd">
<svg version="1.0" xmlns="http://www.w3.org/2000/svg"
 width="656.000000pt" height="421.000000pt" viewBox="0 0 656.000000 421.000000"
 preserveAspectRatio="xMidYMid meet">

<g transform="translate(0.000000,421.000000) scale(0.100000,-0.100000)"
fill="#000000" stroke="none">
<path d="M1198 3363 c-19 -5 -68 -93 -68 -123 0 -9 -7 -23 -15 -30 -8 -7 -15
-21 -15 -31 0 -11 -9 -36 -20 -56 -11 -21 -20 -45 -20 -53 0 -8 -7 -24 -15
-34 -8 -11 -15 -32 -15 -47 0 -14 -7 -32 -15 -39 -8 -7 -15 -22 -15 -34 -1
-11 -9 -39 -20 -61 -11 -22 -19 -45 -20 -51 0 -7 -7 -25 -15 -40 -8 -16 -15
-36 -15 -45 0 -8 -7 -24 -15 -35 -8 -10 -15 -28 -15 -39 0 -11 -7 -29 -15 -39
-8 -11 -15 -27 -15 -35 -1 -9 -9 -34 -20 -56 -11 -22 -19 -49 -20 -60 0 -12
-5 -26 -11 -32 -6 -6 -14 -26 -19 -44 -12 -46 -38 -120 -50 -141 -6 -10 -10
-23 -10 -30 -1 -7 -9 -31 -20 -53 -11 -22 -19 -50 -20 -61 0 -12 -7 -27 -15
-34 -8 -7 -15 -25 -15 -39 0 -15 -7 -36 -15 -47 -8 -10 -15 -26 -15 -34 0 -8
-9 -33 -20 -55 -11 -22 -19 -50 -20 -61 0 -12 -7 -27 -15 -34 -8 -7 -15 -22
-15 -34 0 -11 -4 -28 -9 -35 -6 -9 -6 -22 0 -33 9 -17 34 -18 402 -18 300 0
397 3 409 12 8 7 26 40 38 73 13 33 29 74 36 90 7 17 22 53 34 80 12 28 25 57
29 65 5 9 12 31 16 50 4 19 14 44 21 55 8 11 14 29 14 41 0 12 7 35 15 51 26
50 55 121 55 137 0 8 4 17 9 20 5 3 12 18 15 33 8 32 61 173 81 218 8 17 17
44 21 60 4 17 13 39 20 50 8 11 14 29 14 40 0 12 7 30 15 41 8 10 15 26 15 34
0 8 9 33 20 55 11 22 19 47 20 56 0 8 5 20 11 26 6 6 14 26 19 44 12 49 67
199 78 212 5 7 13 28 17 47 4 19 14 45 22 57 35 53 37 53 -394 52 -219 -1
-406 -3 -415 -6z"/>
<path d="M2112 3343 c-19 -29 -62 -148 -62 -175 0 -9 -7 -21 -16 -28 -8 -8
-14 -25 -12 -39 l3 -26 280 -7 c154 -4 286 -10 292 -13 17 -6 16 -37 -2 -72
-8 -15 -24 -55 -36 -88 -12 -33 -28 -74 -35 -92 -8 -17 -14 -39 -14 -50 0 -10
-7 -27 -15 -37 -8 -11 -15 -28 -15 -38 0 -10 -9 -35 -20 -55 -11 -21 -20 -43
-20 -50 0 -8 -4 -21 -10 -31 -22 -39 -50 -112 -50 -129 0 -10 -6 -27 -13 -38
-7 -11 -23 -54 -36 -95 -13 -41 -29 -88 -37 -105 -26 -56 -104 -257 -104 -269
0 -6 -9 -28 -20 -49 -11 -20 -20 -45 -20 -55 0 -10 -6 -26 -13 -37 -20 -29
-26 -60 -15 -79 8 -14 48 -16 406 -16 344 0 401 2 420 16 12 8 22 20 22 27 0
6 10 36 21 67 12 30 28 73 36 95 17 47 34 87 55 135 18 39 45 118 58 169 5 18
13 38 19 44 6 6 11 20 11 32 1 11 9 38 20 60 11 22 19 48 20 57 0 9 4 19 9 23
5 3 13 20 17 38 6 29 13 48 49 132 7 17 23 59 36 95 12 36 28 72 36 81 7 8 13
23 13 32 0 16 12 47 51 133 11 23 19 45 19 51 0 20 40 91 55 97 9 3 116 6 238
6 122 0 259 3 305 7 l82 6 19 41 c26 58 42 106 48 141 3 17 12 38 20 47 8 9
13 27 11 40 l-3 23 -1042 3 -1042 2 -19 -27z"/>
<path d="M4695 3355 c-22 -8 -50 -15 -63 -15 -20 0 -108 -32 -172 -63 -93 -45
-251 -183 -282 -248 -9 -18 -24 -60 -34 -93 -23 -76 -10 -172 34 -267 39 -83
37 -81 422 -488 155 -164 164 -176 155 -191 -4 -6 -155 -10 -413 -10 -417 -1
-500 -8 -510 -41 -3 -8 -10 -27 -18 -44 -7 -16 -21 -52 -30 -80 -9 -27 -23
-65 -32 -84 -14 -31 -14 -35 2 -46 31 -23 118 -24 776 -15 704 11 780 14 827
36 17 7 42 14 56 14 36 0 160 48 248 96 15 8 51 40 80 72 83 90 123 234 84
302 -8 14 -14 34 -15 45 0 25 -28 79 -88 169 -53 80 -93 130 -201 246 -314
339 -365 400 -353 412 4 4 156 9 337 10 l330 3 19 40 c11 22 25 52 33 67 7 14
13 34 13 45 0 10 6 29 13 43 21 41 27 73 15 87 -16 20 -1177 18 -1233 -2z"/>
<path d="M254 399 c-3 -6 -6 -57 -6 -112 0 -80 3 -103 15 -111 10 -7 20 -6 31
3 20 17 23 200 4 219 -15 15 -35 15 -44 1z"/>
<path d="M346 394 c-3 -9 -6 -57 -6 -109 0 -72 3 -95 16 -106 25 -21 48 1 54
52 3 24 10 42 15 40 6 -3 30 -26 53 -53 64 -70 75 -59 75 72 0 83 -3 104 -16
111 -10 6 -18 5 -23 -3 -8 -13 -9 -18 -12 -71 -3 -37 -11 -33 -61 31 -43 54
-82 69 -95 36z"/>
<path d="M641 398 c-55 -30 -44 -110 17 -124 48 -10 52 -13 52 -34 0 -22 -28
-28 -47 -9 -6 6 -21 9 -34 7 -18 -2 -23 -8 -21 -23 6 -33 20 -40 83 -40 70 1
80 11 77 70 -3 36 -7 42 -45 60 -58 26 -60 55 -3 48 31 -4 41 -2 46 11 4 10 2
22 -4 28 -16 16 -94 20 -121 6z"/>
<path d="M804 396 c-8 -22 4 -36 31 -36 30 0 35 -16 35 -104 0 -40 3 -75 6
-78 3 -3 14 -4 25 -1 17 5 19 14 19 77 0 79 11 103 50 108 17 2 25 9 25 23 0
18 -8 20 -93 23 -74 2 -93 0 -98 -12z"/>
<path d="M1036 403 c-3 -3 -6 -55 -6 -115 0 -108 0 -109 23 -106 21 3 22 8 25
105 2 92 1 103 -16 112 -11 6 -22 7 -26 4z"/>
<path d="M1137 403 c-15 -14 -6 -33 23 -48 29 -15 30 -17 30 -94 0 -82 6 -93
43 -83 14 4 17 16 17 82 0 76 1 79 30 100 47 33 25 50 -65 50 -39 0 -75 -3
-78 -7z"/>
<path d="M1363 402 c-7 -5 -13 -39 -14 -86 -1 -64 2 -82 18 -104 27 -36 63
-48 110 -36 55 13 85 74 81 164 -2 53 -6 65 -21 68 -35 7 -47 -16 -47 -93 0
-65 -2 -73 -23 -82 -18 -9 -28 -7 -46 7 -21 15 -23 25 -22 82 1 66 -12 95 -36
80z"/>
<path d="M1597 403 c-15 -14 -6 -33 23 -48 29 -15 30 -17 30 -89 0 -49 4 -77
13 -85 25 -20 37 9 37 91 0 74 1 78 25 84 38 9 51 30 26 43 -21 12 -144 15
-154 4z"/>
<path d="M1822 398 c-8 -8 -12 -46 -12 -114 0 -117 -2 -114 93 -114 73 0 97
11 81 37 -8 13 -21 17 -53 14 -43 -3 -71 11 -71 35 0 9 12 14 38 14 20 0 43 4
51 9 23 15 2 31 -39 31 -42 0 -54 9 -44 34 4 10 22 16 57 18 44 3 52 6 52 23
0 18 -8 20 -70 23 -46 2 -74 -1 -83 -10z"/>
<path d="M2175 401 c-41 -17 -58 -48 -59 -111 -1 -54 2 -62 28 -87 41 -38 125
-40 174 -4 30 24 32 28 32 92 0 66 0 67 -38 93 -39 27 -95 34 -137 17z m102
-63 c21 -17 25 -46 9 -76 -36 -70 -124 -30 -109 50 8 42 62 56 100 26z"/>
<path d="M2414 399 c-3 -6 -6 -57 -6 -112 -1 -96 1 -102 21 -105 17 -3 21 2
21 21 0 46 10 57 50 57 43 0 74 25 49 41 -8 5 -30 9 -50 9 -43 0 -51 7 -38 31
7 15 21 19 58 19 48 0 70 17 55 41 -8 13 -151 11 -160 -2z"/>
<path d="M2707 399 c-22 -13 -14 -26 29 -44 l34 -14 0 -79 c0 -59 4 -81 14
-85 22 -9 26 2 26 79 0 73 13 104 44 104 22 0 37 22 25 37 -14 16 -145 18
-172 2z"/>
<path d="M2944 377 c-33 -30 -36 -38 -36 -85 0 -39 5 -58 23 -81 41 -51 130
-54 182 -5 24 22 27 32 27 88 0 62 -1 64 -38 90 -56 38 -111 36 -158 -7z m134
-53 c28 -31 27 -37 -1 -70 -25 -29 -66 -35 -92 -14 -24 20 -19 86 7 104 27 19
56 12 86 -20z"/>
<path d="M3206 403 c-10 -10 -7 -183 4 -203 12 -23 66 -35 115 -26 49 10 65
45 65 146 0 64 -3 80 -15 80 -8 0 -18 0 -22 0 -5 0 -10 -35 -13 -77 -5 -70 -7
-79 -30 -90 -20 -10 -29 -10 -45 1 -17 11 -20 26 -23 89 -2 52 -7 77 -16 80
-8 3 -17 3 -20 0z"/>
<path d="M3442 398 c-18 -18 -16 -202 3 -218 22 -18 50 -8 53 20 6 45 21 47
57 7 19 -20 41 -37 50 -37 23 0 30 28 11 49 -20 22 -20 35 -1 51 9 8 15 29 15
55 0 62 -31 85 -114 85 -35 0 -67 -5 -74 -12z m121 -56 c20 -22 6 -42 -29 -42
-28 0 -37 14 -29 40 8 25 37 26 58 2z"/>
<path d="M3693 403 c-9 -3 -13 -36 -13 -113 0 -100 1 -108 21 -113 28 -7 30 3
27 123 -3 100 -8 114 -35 103z"/>
<path d="M3820 403 c-22 -9 -30 -24 -30 -63 0 -47 11 -61 51 -69 25 -5 35 -13
37 -29 4 -25 -16 -29 -47 -10 -24 14 -53 3 -49 -19 5 -28 48 -44 97 -38 50 6
70 26 71 72 0 35 -22 55 -72 67 -28 6 -37 29 -18 41 6 4 17 1 25 -5 19 -16 41
-7 48 20 4 16 -1 23 -19 31 -27 10 -70 11 -94 2z"/>
<path d="M4001 397 c-8 -10 -11 -48 -9 -113 3 -98 3 -99 28 -99 22 0 25 4 25
38 0 50 26 68 45 32 13 -25 14 -25 34 -7 12 11 29 22 39 25 14 5 17 0 17 -37
0 -49 20 -75 39 -52 14 17 13 195 -2 214 -17 22 -44 13 -68 -23 -33 -48 -43
-49 -70 -7 -26 40 -58 52 -78 29z"/>
<path d="M4414 400 c-11 -4 -27 -22 -34 -39 -10 -26 -10 -35 4 -56 9 -13 29
-27 44 -31 48 -10 52 -13 52 -34 0 -22 -20 -26 -51 -9 -20 10 -59 4 -59 -10 0
-23 30 -42 77 -47 47 -6 54 -4 77 21 14 15 26 34 26 42 0 28 -39 70 -70 76
-21 5 -30 12 -30 27 0 11 7 20 15 20 8 0 15 -5 15 -11 0 -19 45 -5 48 15 8 38
-58 59 -114 36z"/>
<path d="M4570 398 c-25 -10 -24 -10 20 -32 l45 -21 3 -75 c3 -80 15 -108 38
-89 10 8 14 36 14 90 0 57 3 79 13 79 7 0 23 7 35 16 18 13 21 19 11 30 -14
17 -140 19 -179 2z"/>
<path d="M4808 398 c-13 -11 -14 -27 -9 -100 7 -102 18 -118 83 -125 37 -4 49
-1 76 22 32 26 32 28 32 115 0 65 -4 89 -14 93 -25 10 -36 -16 -36 -84 0 -58
-3 -70 -21 -83 -14 -9 -29 -12 -43 -7 -18 7 -22 18 -26 91 -5 85 -13 100 -42
78z"/>
<path d="M5052 398 c-16 -16 -16 -200 0 -216 19 -19 97 -14 144 9 35 18 44 29
52 61 15 60 -4 116 -48 139 -39 22 -129 26 -148 7z m102 -49 c28 -13 51 -60
42 -84 -9 -23 -67 -45 -88 -34 -14 7 -18 22 -18 64 0 64 15 76 64 54z"/>
<path d="M5316 403 c-9 -9 -7 -221 2 -227 21 -13 30 16 33 112 3 87 1 105 -12
112 -9 5 -19 7 -23 3z"/>
<path d="M5414 397 c-2 -7 -3 -60 -2 -118 l3 -104 67 -3 c77 -3 117 11 97 34
-6 8 -29 14 -50 14 -28 0 -41 5 -49 20 -12 23 -6 28 50 32 54 5 46 32 -10 38
-25 3 -44 8 -42 13 1 4 2 14 2 22 0 11 12 15 44 15 52 0 79 22 47 39 -29 16
-150 14 -157 -2z"/>
<path d="M5657 398 c-9 -7 -21 -26 -26 -41 -14 -35 9 -74 48 -83 33 -8 51 -22
51 -40 0 -17 -32 -18 -47 -3 -7 7 -23 9 -37 5 -23 -6 -24 -9 -15 -30 11 -23
44 -36 94 -36 35 0 75 37 75 69 0 32 -37 71 -68 71 -18 0 -42 25 -42 44 0 10
30 6 50 -6 17 -11 22 -10 30 2 16 25 11 40 -16 50 -35 14 -77 12 -97 -2z"/>
</g>
</svg>
