<?xml version="1.0" standalone="no"?>
<!DOCTYPE svg PUBLIC "-//W3C//DTD SVG 20010904//EN"
 "http://www.w3.org/TR/2001/REC-SVG-20010904/DTD/svg10.dtd">
<svg version="1.0" xmlns="http://www.w3.org/2000/svg"
 width="609.000000pt" height="393.000000pt" viewBox="0 0 609.000000 393.000000"
 preserveAspectRatio="xMidYMid meet">

<g transform="translate(0.000000,393.000000) scale(0.100000,-0.100000)"
fill="#000000" stroke="none">
<path d="M6085 1965 c0 -1084 1 -1528 2 -988 2 540 2 1426 0 1970 -1 543 -2
102 -2 -982z"/>
<path d="M27 3123 c-4 -3 -7 -422 -7 -930 l0 -923 938 2 937 3 0 925 0 925
-931 3 c-512 1 -934 -1 -937 -5z m709 -358 c387 -395 519 -524 526 -517 4 4 9
154 10 332 l3 325 225 0 225 0 3 -682 2 -683 -207 1 -208 1 -325 333 c-179
183 -328 334 -332 334 -4 1 -9 -149 -10 -331 l-3 -333 -230 0 -230 0 -3 650
c-1 358 0 665 3 683 l6 33 204 -3 204 -3 137 -140z"/>
<path d="M2089 3126 c-2 -2 -3 -421 -1 -930 l2 -926 938 2 937 3 3 928 2 927
-938 0 c-516 0 -941 -2 -943 -4z m1121 -226 c81 -30 196 -92 218 -118 16 -20
17 -333 1 -349 -8 -8 -32 5 -87 46 -99 72 -108 77 -182 96 -57 15 -66 15 -111
0 -36 -12 -54 -25 -65 -47 -15 -28 -14 -33 2 -63 17 -33 61 -62 196 -134 166
-87 216 -131 287 -251 11 -18 15 -57 16 -145 0 -114 -2 -123 -30 -178 -46 -91
-135 -165 -250 -207 -33 -12 -162 -30 -217 -30 -102 0 -227 20 -353 56 -111
32 -105 19 -105 230 0 127 3 184 11 184 6 0 23 -8 37 -18 24 -17 82 -46 147
-73 37 -16 139 -39 172 -39 47 0 98 24 118 54 35 53 -12 105 -162 175 -67 31
-174 105 -219 150 -22 22 -54 67 -70 98 -27 54 -29 66 -29 173 0 104 3 120 27
170 44 89 162 195 238 213 14 3 41 10 60 16 47 14 306 7 350 -9z"/>
<path d="M4160 2200 l0 -930 935 0 935 0 2 926 c2 509 1 928 -1 930 -2 2 -424
4 -938 4 l-933 0 0 -930z m1101 722 c326 -82 548 -364 549 -698 0 -179 -87
-382 -218 -510 -77 -75 -228 -158 -317 -175 -179 -33 -172 -33 -278 -14 -56
10 -105 24 -110 29 -9 13 -2 49 17 91 8 17 22 50 31 75 25 65 35 91 50 125 7
17 27 66 45 110 40 104 49 124 66 158 8 16 14 36 14 46 0 9 4 21 9 27 4 5 13
24 19 42 10 28 9 32 -7 32 -10 0 -31 -6 -47 -14 -16 -8 -60 -29 -99 -46 -38
-17 -88 -40 -110 -50 -22 -10 -70 -32 -107 -49 -38 -17 -98 -45 -135 -62 -184
-85 -191 -87 -199 -62 -3 10 -10 27 -15 38 -27 62 -38 260 -19 355 19 97 76
218 146 309 68 88 207 185 315 219 35 12 78 25 94 31 52 17 225 13 306 -7z"/>
<path d="M43 1023 c-9 -3 -13 -35 -13 -110 0 -103 0 -104 22 -101 20 3 23 8
20 38 -1 19 2 42 7 50 12 17 10 18 40 -42 15 -33 29 -48 42 -48 18 0 19 8 19
110 0 61 -3 110 -7 110 -20 -1 -32 -18 -35 -49 -4 -48 -20 -48 -43 1 -21 42
-30 50 -52 41z"/>
<path d="M294 1013 c-3 -10 -10 -27 -14 -38 -5 -11 -14 -42 -20 -70 -6 -27
-14 -60 -17 -72 -8 -34 34 -32 47 2 6 15 17 25 30 25 13 0 22 -9 26 -25 4 -18
13 -25 30 -25 24 0 34 23 15 34 -5 4 -12 29 -16 56 -4 27 -11 52 -16 56 -5 3
-9 18 -9 34 0 39 -45 57 -56 23z m46 -110 c0 -7 -9 -13 -20 -13 -15 0 -20 7
-20 25 0 23 2 24 20 13 11 -7 20 -18 20 -25z"/>
<path d="M473 1023 c-26 -5 -31 -23 -8 -23 12 0 15 -17 15 -96 0 -93 1 -95 23
-92 21 3 22 8 25 88 2 65 6 88 19 97 9 7 14 15 12 18 -9 8 -62 13 -86 8z"/>
<path d="M656 1023 c-3 -4 -6 -53 -6 -110 0 -96 1 -103 20 -103 19 0 20 7 20
104 0 80 -3 105 -14 109 -8 3 -17 3 -20 0z"/>
<path d="M813 1020 c-25 -10 -53 -68 -53 -110 0 -15 10 -42 23 -61 30 -45 72
-50 110 -15 23 22 27 33 27 84 0 42 -5 66 -17 80 -22 25 -60 35 -90 22z m52
-44 c25 -24 29 -79 8 -105 -16 -20 -23 -22 -40 -13 -35 19 -40 82 -11 120 13
16 26 15 43 -2z"/>
<path d="M1007 1023 c-4 -3 -7 -53 -7 -110 0 -94 2 -104 18 -101 13 3 17 13
15 51 -2 66 17 62 56 -13 11 -21 26 -35 37 -35 16 0 18 10 18 98 1 70 -3 102
-12 110 -19 15 -32 -8 -32 -55 0 -21 -3 -38 -8 -38 -4 0 -17 23 -30 50 -21 46
-39 60 -55 43z"/>
<path d="M1268 1019 c-10 -5 -20 -26 -24 -47 -3 -20 -12 -56 -20 -80 -8 -23
-14 -52 -14 -62 0 -26 30 -26 37 0 10 38 73 33 73 -6 0 -8 9 -14 20 -14 19 0
20 4 14 38 -3 20 -13 55 -20 77 -8 22 -14 50 -14 62 0 28 -29 45 -52 32z m26
-95 c10 -25 7 -34 -9 -34 -9 0 -15 9 -15 25 0 28 15 34 24 9z"/>
<path d="M1431 1016 c-8 -9 -11 -46 -9 -107 l3 -94 59 -3 c44 -2 57 0 54 10
-3 7 -20 15 -39 18 l-34 5 -3 85 c-3 89 -11 111 -31 86z"/>
<path d="M1930 1021 c-22 -6 -23 -8 -8 -17 14 -7 18 -27 20 -99 3 -82 5 -90
23 -90 18 0 20 8 23 85 2 65 6 88 19 97 9 7 14 15 12 18 -10 10 -64 14 -89 6z"/>
<path d="M2136 1018 c-2 -7 -8 -29 -15 -49 -6 -19 -15 -55 -20 -80 -5 -24 -12
-52 -16 -61 -6 -14 -2 -18 18 -18 18 0 27 7 31 25 4 15 13 25 25 25 10 0 26
-11 35 -25 16 -25 46 -34 46 -15 0 14 -30 130 -40 155 -5 11 -11 28 -14 38 -6
19 -45 23 -50 5z m44 -103 c0 -18 -5 -25 -20 -25 -24 0 -25 8 -3 32 21 23 23
23 23 -7z"/>
<path d="M2318 1023 c-22 -6 -23 -19 -3 -27 12 -4 15 -25 15 -96 0 -89 1 -91
23 -88 21 3 22 8 25 93 2 55 7 92 15 97 6 4 9 9 6 12 -9 9 -62 15 -81 9z"/>
<path d="M2513 1023 c-9 -3 -13 -35 -13 -109 0 -97 1 -104 20 -104 19 0 20 7
20 104 0 104 -3 117 -27 109z"/>
<path d="M2803 1023 c-28 -5 -29 -14 -3 -31 17 -11 20 -23 20 -97 0 -78 2 -85
20 -85 19 0 20 7 20 90 0 74 3 91 17 99 10 5 15 12 12 15 -9 9 -61 14 -86 9z"/>
<path d="M2976 1023 c-3 -3 -6 -53 -6 -110 l0 -103 25 0 c25 0 25 0 25 100 0
87 -2 101 -19 109 -10 6 -21 7 -25 4z"/>
<path d="M3134 1020 c-12 -4 -28 -28 -39 -55 -15 -41 -16 -52 -5 -86 7 -21 21
-46 31 -55 24 -21 83 -15 87 9 3 15 0 18 -18 12 -33 -10 -60 20 -60 67 0 52
15 78 45 78 29 0 43 19 24 31 -17 11 -37 10 -65 -1z"/>
<path d="M3310 1013 c-28 -20 -25 -44 10 -88 17 -21 30 -49 30 -62 0 -22 -3
-24 -26 -19 -21 6 -25 4 -22 -11 4 -25 54 -29 79 -7 29 26 23 64 -16 109 -40
45 -40 59 -2 63 15 2 27 7 27 12 0 14 -60 17 -80 3z"/>
<path d="M3638 1010 c-53 -41 -59 -124 -13 -174 34 -37 76 -35 109 5 72 85
-13 235 -96 169z m64 -37 c12 -11 18 -30 18 -60 0 -37 -4 -45 -26 -55 -22 -11
-28 -10 -40 7 -25 34 -12 125 18 125 6 0 20 -7 30 -17z"/>
<path d="M3841 1016 c-8 -9 -11 -46 -9 -107 3 -80 6 -94 21 -97 14 -3 17 4 17
38 0 27 5 43 15 46 20 8 19 30 -1 38 -10 4 -14 15 -12 33 2 23 8 29 36 31 40
4 43 22 3 22 -16 0 -36 2 -44 5 -7 3 -19 -1 -26 -9z"/>
<path d="M4007 1024 c-4 -4 -7 -54 -7 -111 0 -103 0 -104 23 -101 19 3 23 11
29 56 3 30 2 67 -2 82 -9 31 3 50 32 50 10 0 18 5 18 10 0 6 -6 10 -14 10 -7
0 -26 3 -42 6 -16 3 -32 2 -37 -2z"/>
<path d="M4187 1023 c-4 -3 -7 -53 -7 -110 0 -94 2 -104 18 -101 14 3 17 17
20 88 4 110 -6 149 -31 123z"/>
<path d="M4339 1023 c-53 -14 -66 -157 -18 -194 28 -21 69 -25 87 -7 20 20 14
28 -16 22 -20 -4 -33 0 -47 16 -36 39 -17 130 27 130 7 0 20 5 28 10 13 9 13
11 0 20 -15 10 -33 11 -61 3z"/>
<path d="M4497 1024 c-4 -4 -7 -54 -7 -111 l0 -103 65 0 c37 0 65 4 65 10 0 6
-15 10 -34 10 -40 0 -60 21 -52 54 4 16 15 25 38 30 35 7 29 22 -12 28 -19 2
-25 9 -25 28 0 21 5 26 33 28 39 4 43 22 5 22 -16 0 -37 3 -48 6 -11 3 -24 2
-28 -2z"/>
<path d="M5107 1023 c-4 -3 -7 -53 -7 -110 0 -94 2 -104 18 -101 12 3 17 14
18 43 2 68 4 75 14 75 6 0 10 -7 10 -15 0 -22 40 -41 51 -24 5 8 9 20 9 27 0
6 5 12 10 12 6 0 10 -27 10 -60 0 -53 2 -60 20 -60 19 0 20 7 20 104 0 82 -3
105 -15 109 -14 6 -55 -35 -55 -54 0 -17 -41 -9 -47 9 -7 20 -33 52 -43 52 -4
0 -10 -3 -13 -7z"/>
<path d="M5399 1023 c-9 -2 -20 -24 -27 -56 -24 -101 -30 -122 -37 -139 -6
-14 -2 -18 18 -18 16 0 26 7 30 20 9 34 38 37 61 7 23 -29 46 -35 46 -13 0 7
-6 36 -14 62 -8 27 -19 68 -25 90 -11 42 -23 53 -52 47z m31 -109 c0 -15 -6
-24 -15 -24 -17 0 -18 4 -9 37 8 29 24 20 24 -13z"/>
<path d="M5567 1023 c-4 -3 -7 -53 -7 -110 l0 -104 55 3 c63 3 79 21 23 26
l-38 3 0 79 c0 97 -10 127 -33 103z"/>
<path d="M5763 1023 c-26 -5 -30 -18 -8 -26 11 -5 15 -28 17 -94 3 -74 6 -88
21 -91 15 -3 17 6 17 88 0 83 2 92 20 97 22 6 27 23 8 23 -7 0 -22 2 -33 4
-11 2 -30 2 -42 -1z"/>
<path d="M5968 1017 c-9 -7 -25 -53 -37 -104 -25 -111 -25 -103 -1 -103 11 0
20 6 20 14 0 39 63 44 73 6 5 -21 37 -28 37 -8 0 6 -7 41 -16 77 -8 36 -17 76
-20 88 -6 30 -36 46 -56 30z m28 -123 c-11 -28 -28 -1 -20 32 7 27 8 28 17 7
5 -12 7 -30 3 -39z"/>
<path d="M1742 1000 c-14 -23 0 -61 37 -94 12 -11 21 -30 21 -44 0 -22 -3 -24
-36 -18 -33 7 -35 6 -24 -13 15 -28 75 -29 90 -2 14 27 13 67 -3 83 -26 26
-49 67 -42 78 3 5 17 10 31 10 14 0 22 4 19 10 -12 19 -79 12 -93 -10z"/>
<path d="M2615 1001 c-9 -29 4 -66 31 -92 13 -12 24 -34 24 -47 0 -23 -3 -24
-37 -19 -21 3 -32 3 -25 0 6 -2 12 -11 12 -19 0 -9 11 -14 35 -14 28 0 37 5
50 30 17 33 11 53 -36 112 -23 29 -19 48 12 48 10 0 19 5 19 10 0 6 -18 10
-39 10 -30 0 -41 -5 -46 -19z"/>
<path d="M4828 959 c-25 -14 -24 -66 2 -74 26 -8 60 11 60 34 0 10 -8 25 -18
34 -21 20 -21 20 -44 6z"/>
</g>
</svg>
