<?xml version="1.0" standalone="no"?>
<!DOCTYPE svg PUBLIC "-//W3C//DTD SVG 20010904//EN"
 "http://www.w3.org/TR/2001/REC-SVG-20010904/DTD/svg10.dtd">
<svg version="1.0" xmlns="http://www.w3.org/2000/svg"
 width="225.000000pt" height="225.000000pt" viewBox="0 0 225.000000 225.000000"
 preserveAspectRatio="xMidYMid meet">

<g transform="translate(0.000000,225.000000) scale(0.100000,-0.100000)"
fill="red" stroke="none">
<path d="M0 1125 l0 -1125 1125 0 1125 0 0 1125 0 1125 -1125 0 -1125 0 0
-1125z m2125 0 l0 -1000 -1000 0 -1000 0 -3 980 c-1 539 0 990 3 1003 l5 22
998 -2 997 -3 0 -1000z"/>
<path d="M1764 1636 c-17 -8 -41 -28 -53 -45 -27 -37 -61 -130 -61 -165 0 -32
-17 -44 -70 -48 -33 -2 -46 -8 -48 -20 -3 -15 4 -18 48 -18 l52 0 -6 -47 c-39
-279 -77 -477 -102 -525 -15 -29 -34 -37 -34 -15 0 29 -26 50 -53 43 -23 -5
-27 -12 -27 -40 0 -42 20 -60 67 -58 61 2 104 58 147 188 25 77 82 344 88 414
l3 35 56 3 c47 2 58 6 62 22 5 18 0 20 -48 20 -33 0 -55 5 -57 12 -6 16 16
133 32 176 14 36 50 46 50 13 0 -36 12 -51 39 -51 34 0 51 17 51 50 0 52 -75
83 -136 56z"/>
<path d="M333 1393 c-34 -3 -43 -8 -43 -23 0 -11 12 -25 28 -32 l27 -13 2
-150 c3 -222 26 -268 135 -268 60 0 105 19 147 63 39 42 51 38 51 -15 l0 -46
88 3 c82 3 87 4 90 26 2 14 -2 22 -12 22 -8 0 -22 7 -30 16 -14 13 -16 47 -16
214 0 125 -4 201 -10 205 -6 4 -51 3 -100 -1 -77 -6 -90 -9 -90 -24 0 -11 12
-22 31 -29 l31 -11 -4 -122 c-4 -142 -20 -190 -74 -215 -37 -18 -78 -11 -90
14 -5 10 -11 101 -14 203 l-5 185 -50 1 c-27 1 -69 -1 -92 -3z"/>
<path d="M1014 1380 c-31 -20 -84 -104 -84 -134 0 -28 28 -17 45 17 43 89 85
102 85 26 0 -23 -4 -58 -10 -78 -5 -20 -28 -115 -50 -211 -61 -262 -56 -248
-93 -258 -18 -5 -33 -16 -35 -25 -3 -15 10 -17 122 -17 119 0 126 1 126 20 0
16 -7 20 -34 20 -53 0 -59 16 -40 101 9 41 18 86 21 102 6 33 19 34 48 3 51
-55 163 -53 235 4 21 16 51 57 70 95 30 59 34 76 34 148 0 136 -45 197 -154
205 -48 4 -63 0 -98 -22 -22 -14 -43 -30 -47 -36 -10 -17 -23 -12 -31 12 -15
49 -59 60 -110 28z m316 -65 c47 -50 29 -222 -31 -300 -48 -60 -126 -66 -161
-11 -16 26 -19 44 -15 111 7 133 67 225 147 225 26 0 43 -7 60 -25z"/>
<path d="M1847 1002 c-35 -39 -13 -92 38 -92 52 0 75 59 37 93 -24 22 -55 21
-75 -1z"/>
</g>
</svg>
