<?xml version="1.0" standalone="no"?>
<!DOCTYPE svg PUBLIC "-//W3C//DTD SVG 20010904//EN"
 "http://www.w3.org/TR/2001/REC-SVG-20010904/DTD/svg10.dtd">
<svg version="1.0" xmlns="http://www.w3.org/2000/svg"
 width="225.000000pt" height="213.000000pt" viewBox="0 0 225.000000 213.000000"
 preserveAspectRatio="xMidYMid meet">

<g transform="translate(0.000000,213.000000) scale(0.100000,-0.100000)"
fill="#0D2B75" stroke="none">
<path d="M921 2095 c-424 -92 -730 -401 -823 -830 -7 -34 -12 -122 -12 -205 0
-118 5 -162 23 -234 51 -198 136 -350 275 -492 187 -189 421 -296 683 -311
399 -23 772 179 969 525 79 137 119 265 133 423 28 302 -70 588 -279 812 -148
159 -327 261 -538 307 -106 24 -333 26 -431 5z m332 -106 c305 -45 549 -217
701 -493 60 -109 106 -295 106 -432 l0 -54 -392 -1 c-361 0 -389 -1 -339 -15
80 -21 180 -66 247 -109 76 -50 200 -176 243 -249 31 -53 33 -59 20 -83 -15
-29 -157 -183 -168 -183 -4 0 -15 23 -25 50 -38 105 -133 222 -231 285 -46 29
-153 75 -175 75 -6 0 -10 -107 -10 -280 l0 -280 -100 0 c-82 0 -100 3 -101 15
-1 8 -3 20 -4 25 -1 6 -3 125 -4 265 l-1 255 -27 -6 c-56 -13 -170 -74 -221
-120 -62 -54 -123 -141 -153 -216 -11 -29 -23 -56 -27 -60 -10 -9 -100 76
-151 140 -47 61 -47 56 24 157 103 146 262 259 435 311 l75 23 -389 0 -389 1
6 113 c7 134 31 227 92 352 57 116 131 213 226 295 97 82 167 125 279 167 153
57 304 75 453 52z"/>
<path d="M1027 1873 c-4 -3 -7 -130 -7 -281 l0 -274 -27 6 c-58 13 -174 78
-226 126 -66 60 -120 136 -152 216 -13 32 -27 58 -31 58 -13 -3 -120 -114
-151 -157 l-33 -45 41 -62 c108 -168 282 -296 476 -352 65 -19 102 -22 218
-22 125 1 149 3 225 28 105 35 145 55 238 119 83 57 171 150 221 232 41 68 40
70 -67 185 -73 79 -92 93 -92 66 0 -7 -18 -50 -41 -95 -54 -109 -147 -203
-250 -253 -41 -20 -89 -39 -106 -43 l-33 -7 0 281 0 281 -98 0 c-54 0 -102 -3
-105 -7z"/>
</g>
</svg>
